<svg xmlns="http://www.w3.org/2000/svg" xmlns:xlink="http://www.w3.org/1999/xlink" width="1920" zoomAndPan="magnify" viewBox="0 0 1440 809.999993" height="1080" preserveAspectRatio="xMidYMid meet" version="1.0"><defs><clipPath id="ba06367677"><path d="M 0 82 L 1101 82 L 1101 731.703125 L 0 731.703125 Z M 0 82 " clip-rule="nonzero"/></clipPath><clipPath id="3141b97496"><path d="M 629 415 L 1440 415 L 1440 731.703125 L 629 731.703125 Z M 629 415 " clip-rule="nonzero"/></clipPath><clipPath id="8827e0670a"><path d="M 276 731 L 297 731 L 297 731.703125 L 276 731.703125 Z M 276 731 " clip-rule="nonzero"/></clipPath></defs><g clip-path="url(#ba06367677)"><path fill="#4383cb" d="M 1100.621094 390.898438 L 1100.507812 391.011719 C 1013.5 310.023438 877.285156 311.882812 792.550781 396.609375 L 592.195312 596.964844 C 588.101562 601.429688 583.898438 605.839844 579.582031 610.152344 C 575.253906 614.484375 570.847656 618.6875 566.390625 622.777344 C 489.9375 692.867188 393.542969 729.074219 296.5 731.371094 C 289.972656 731.523438 283.457031 731.523438 276.933594 731.371094 C 241.871094 730.554688 206.882812 725.308594 172.898438 715.632812 C 148.863281 708.792969 125.320312 699.742188 102.59375 688.472656 C 65.359375 670 30.316406 645.578125 -1.09375 615.222656 L 440.082031 174.046875 C 492.964844 121.164062 560.03125 91.105469 629.03125 83.878906 C 680.785156 78.457031 733.632812 85.863281 782.402344 106.128906 C 819.269531 121.425781 853.796875 144.066406 883.777344 174.050781 Z M 1100.621094 390.898438 " fill-opacity="1" fill-rule="nonzero"/></g><g clip-path="url(#3141b97496)"><path fill="#4383cb" d="M 1441.09375 731.375 L 629.929688 731.375 C 639.984375 723.71875 649.773438 715.546875 659.246094 706.863281 C 663.703125 702.773438 668.109375 698.570312 672.4375 694.238281 C 676.753906 689.921875 680.960938 685.515625 685.050781 681.050781 L 885.40625 480.691406 C 959.324219 406.785156 1072.421875 395.933594 1157.847656 448.125 Z M 1441.09375 731.375 " fill-opacity="1" fill-rule="nonzero"/></g><g clip-path="url(#8827e0670a)"><path fill="#4383cb" d="M 296.496094 731.375 C 289.96875 731.523438 283.457031 731.523438 276.929688 731.375 Z M 296.496094 731.375 " fill-opacity="1" fill-rule="nonzero"/></g></svg>